<?xml version="1.0" encoding="utf-8"?>
<svg version="1.1" xmlns:xlink="http://www.w3.org/1999/xlink" width="29px" height="23px" xmlns="http://www.w3.org/2000/svg">
  <g transform="matrix(1 0 0 1 -23 -154 )">
    <path d="M 24.8314745972739 13.1402961808262  C 24.8434531185461 13.1641984931151  24.8494423791822 13.2000519615485  24.8494423791822 13.2478565861263  L 24.8494423791822 21.8526890101325  C 24.8494423791822 22.1634190698883  24.7356464270962 22.4323200831385  24.5080545229244 22.6593920498831  C 24.2804626187526 22.8864640166277  24.010945890128 23  23.6995043370508 23  L 16.7998760842627 23  L 16.7998760842627 16.116134060795  L 12.2001239157373 16.116134060795  L 12.2001239157373 23  L 5.30049566294919 23  C 4.98905410987195 23  4.71953738124742 22.8864640166277  4.49194547707559 22.6593920498831  C 4.26435357290376 22.4323200831385  4.15055762081784 22.1634190698883  4.15055762081784 21.8526890101325  L 4.15055762081784 13.2478565861263  C 4.15055762081784 13.2359054299818  4.15355225113589 13.2179786957651  4.159541511772 13.1940763834762  C 4.1655307724081 13.1701740711873  4.16852540272615 13.1522473369706  4.16852540272615 13.1402961808262  L 14.5 4.64302416212003  L 24.8314745972739 13.1402961808262  Z M 28.9820322180917 11.5896336710834  C 28.9940107393639 11.7509742790335  28.9520859149112 11.8914003637308  28.8562577447336 12.0109119251754  L 27.7422552664188 13.3374902572097  C 27.6464270962412 13.4450506625097  27.5206526228831 13.5107820213042  27.3649318463445 13.5346843335931  L 27.3110285006196 13.5346843335931  C 27.155307724081 13.5346843335931  27.0295332507228 13.4928552870876  26.9337050805452 13.4091971940764  L 14.5 3.06547155105222  L 2.06629491945477 13.4091971940764  C 1.92255266418835 13.504806443232  1.77881040892193 13.5466354897376  1.63506815365551 13.5346843335931  C 1.47934737711689 13.5107820213042  1.35357290375878 13.4450506625097  1.25774473358116 13.3374902572097  L 0.143742255266419 12.0109119251754  C 0.0479140850888063 11.8914003637308  0.00598926063610083 11.7509742790335  0.0179677819083024 11.5896336710834  C 0.029946303180504 11.4282930631333  0.0958281701776126 11.2998181345804  0.215613382899628 11.2042088854248  L 13.134448574969 0.466095089633672  C 13.5177612556795 0.155365029877888  13.9729450640231 0  14.5 0  C 15.0270549359769 0  15.4822387443205 0.155365029877888  15.865551425031 0.466095089633672  L 20.2496902106568 4.12314886983632  L 20.2496902106568 0.627435697583787  C 20.2496902106568 0.460119511561442  20.3035935563817 0.322681215900233  20.4114002478315 0.215120810600157  C 20.5192069392813 0.107560405300078  20.6569599339116 0.0537802026500392  20.8246592317224 0.0537802026500392  L 24.2744733581165 0.0537802026500392  C 24.4421726559273 0.0537802026500392  24.5799256505576 0.107560405300078  24.6877323420074 0.215120810600157  C 24.7955390334572 0.322681215900233  24.8494423791822 0.460119511561442  24.8494423791822 0.627435697583787  L 24.8494423791822 7.94154325798909  L 28.7843866171004 11.2042088854248  C 28.9041718298224 11.2998181345804  28.9700536968195 11.4282930631333  28.9820322180917 11.5896336710834  Z " fill-rule="nonzero" fill="#fbbd1e" stroke="none" transform="matrix(1 0 0 1 23 154 )" />
  </g>
</svg>