<?xml version="1.0" encoding="utf-8"?>
<svg version="1.1" xmlns:xlink="http://www.w3.org/1999/xlink" width="21px" height="22px" xmlns="http://www.w3.org/2000/svg">
  <g transform="matrix(1 0 0 1 -27 -215 )">
    <path d="M 2 8  L 2 20  L 19 20  L 19 8  L 2 8  Z M 6.34795673076923 5.78236607142857  C 6.42367788461538 5.70870535714286  6.46153846153846 5.61458333333333  6.46153846153846 5.5  L 6.46153846153846 1.96428571428571  C 6.46153846153846 1.84970238095238  6.42367788461538 1.75558035714286  6.34795673076923 1.68191964285714  C 6.27223557692308 1.60825892857143  6.17548076923077 1.57142857142857  6.05769230769231 1.57142857142857  L 5.25 1.57142857142857  C 5.13221153846154 1.57142857142857  5.03545673076923 1.60825892857143  4.95973557692308 1.68191964285714  C 4.88401442307692 1.75558035714286  4.84615384615385 1.84970238095238  4.84615384615385 1.96428571428571  L 4.84615384615385 5.5  C 4.84615384615385 5.61458333333333  4.88401442307692 5.70870535714286  4.95973557692308 5.78236607142857  C 5.03545673076923 5.85602678571429  5.13221153846154 5.89285714285714  5.25 5.89285714285714  L 6.05769230769231 5.89285714285714  C 6.17548076923077 5.89285714285714  6.27223557692308 5.85602678571429  6.34795673076923 5.78236607142857  Z M 16.0402644230769 5.78236607142857  C 16.1159855769231 5.70870535714286  16.1538461538462 5.61458333333333  16.1538461538462 5.5  L 16.1538461538462 1.96428571428571  C 16.1538461538462 1.84970238095238  16.1159855769231 1.75558035714286  16.0402644230769 1.68191964285714  C 15.9645432692308 1.60825892857143  15.8677884615385 1.57142857142857  15.75 1.57142857142857  L 14.9423076923077 1.57142857142857  C 14.8245192307692 1.57142857142857  14.7277644230769 1.60825892857143  14.6520432692308 1.68191964285714  C 14.5763221153846 1.75558035714286  14.5384615384615 1.84970238095238  14.5384615384615 1.96428571428571  L 14.5384615384615 5.5  C 14.5384615384615 5.61458333333333  14.5763221153846 5.70870535714286  14.6520432692308 5.78236607142857  C 14.7277644230769 5.85602678571429  14.8245192307692 5.89285714285714  14.9423076923077 5.89285714285714  L 15.75 5.89285714285714  C 15.8677884615385 5.89285714285714  15.9645432692308 5.85602678571429  16.0402644230769 5.78236607142857  Z M 20.5204326923077 3.609375  C 20.8401442307692 3.92038690476191  21 4.28869047619048  21 4.71428571428571  L 21 20.4285714285714  C 21 20.8541666666667  20.8401442307692 21.2224702380952  20.5204326923077 21.5334821428571  C 20.2007211538462 21.844494047619  19.8221153846154 22  19.3846153846154 22  L 1.61538461538462 22  C 1.17788461538462 22  0.799278846153846 21.844494047619  0.479567307692308 21.5334821428571  C 0.159855769230769 21.2224702380952  0 20.8541666666667  0 20.4285714285714  L 0 4.71428571428571  C 0 4.28869047619048  0.159855769230769 3.92038690476191  0.479567307692308 3.609375  C 0.799278846153846 3.29836309523809  1.17788461538462 3.14285714285714  1.61538461538462 3.14285714285714  L 3.23076923076923 3.14285714285714  L 3.23076923076923 1.96428571428571  C 3.23076923076923 1.42410714285714  3.42848557692308 0.961681547619046  3.82391826923077 0.577008928571429  C 4.21935096153846 0.19233630952381  4.69471153846154 0  5.25 0  L 6.05769230769231 0  C 6.61298076923077 0  7.08834134615385 0.19233630952381  7.48377403846154 0.577008928571429  C 7.87920673076923 0.961681547619046  8.07692307692308 1.42410714285714  8.07692307692308 1.96428571428571  L 8.07692307692308 3.14285714285714  L 12.9230769230769 3.14285714285714  L 12.9230769230769 1.96428571428571  C 12.9230769230769 1.42410714285714  13.1207932692308 0.961681547619046  13.5162259615385 0.577008928571429  C 13.9116586538462 0.19233630952381  14.3870192307692 0  14.9423076923077 0  L 15.75 0  C 16.3052884615385 0  16.7806490384615 0.19233630952381  17.1760817307692 0.577008928571429  C 17.5715144230769 0.961681547619046  17.7692307692308 1.42410714285714  17.7692307692308 1.96428571428571  L 17.7692307692308 3.14285714285714  L 19.3846153846154 3.14285714285714  C 19.8221153846154 3.14285714285714  20.2007211538462 3.29836309523809  20.5204326923077 3.609375  Z " fill-rule="nonzero" fill="#fbbd1e" stroke="none" transform="matrix(1 0 0 1 27 215 )" />
  </g>
</svg>