<?xml version="1.0" encoding="utf-8"?>
<svg version="1.1" xmlns:xlink="http://www.w3.org/1999/xlink" width="63px" height="63px" xmlns="http://www.w3.org/2000/svg">
  <g transform="matrix(1 0 0 1 -937 -19 )">
    <path d="M 44.015625 55.423828125  C 47.8828125 53.373046875  51.05859375 50.58984375  53.54296875 47.07421875  C 53.02734375 43.44140625  52.001953125 40.423828125  50.466796875 38.021484375  C 48.931640625 35.619140625  46.76953125 34.23046875  43.98046875 33.85546875  C 42.41015625 35.58984375  40.541015625 36.943359375  38.373046875 37.916015625  C 36.205078125 38.888671875  33.9140625 39.375  31.5 39.375  C 29.0859375 39.375  26.794921875 38.888671875  24.626953125 37.916015625  C 22.458984375 36.943359375  20.58984375 35.58984375  19.01953125 33.85546875  C 16.23046875 34.23046875  14.068359375 35.619140625  12.533203125 38.021484375  C 10.998046875 40.423828125  9.97265625 43.44140625  9.45703125 47.07421875  C 11.94140625 50.58984375  15.1171875 53.373046875  18.984375 55.423828125  C 22.8515625 57.474609375  27.0234375 58.5  31.5 58.5  C 35.9765625 58.5  40.1484375 57.474609375  44.015625 55.423828125  Z M 41.044921875 32.044921875  C 43.681640625 29.408203125  45 26.2265625  45 22.5  C 45 18.7734375  43.681640625 15.591796875  41.044921875 12.955078125  C 38.408203125 10.318359375  35.2265625 9  31.5 9  C 27.7734375 9  24.591796875 10.318359375  21.955078125 12.955078125  C 19.318359375 15.591796875  18 18.7734375  18 22.5  C 18 26.2265625  19.318359375 29.408203125  21.955078125 32.044921875  C 24.591796875 34.681640625  27.7734375 36  31.5 36  C 35.2265625 36  38.408203125 34.681640625  41.044921875 32.044921875  Z M 60.50390625 19.265625  C 62.16796875 23.15625  63 27.234375  63 31.5  C 63 35.765625  62.16796875 39.837890625  60.50390625 43.716796875  C 58.83984375 47.595703125  56.607421875 50.947265625  53.806640625 53.771484375  C 51.005859375 56.595703125  47.66015625 58.83984375  43.76953125 60.50390625  C 39.87890625 62.16796875  35.7890625 63  31.5 63  C 27.234375 63  23.15625 62.16796875  19.265625 60.50390625  C 15.375 58.83984375  12.0234375 56.6015625  9.2109375 53.7890625  C 6.3984375 50.9765625  4.16015625 47.625  2.49609375 43.734375  C 0.83203125 39.84375  0 35.765625  0 31.5  C 0 27.234375  0.83203125 23.15625  2.49609375 19.265625  C 4.16015625 15.375  6.3984375 12.0234375  9.2109375 9.2109375  C 12.0234375 6.3984375  15.375 4.16015625  19.265625 2.49609375  C 23.15625 0.83203125  27.234375 0  31.5 0  C 35.765625 0  39.84375 0.83203125  43.734375 2.49609375  C 47.625 4.16015625  50.9765625 6.3984375  53.7890625 9.2109375  C 56.6015625 12.0234375  58.83984375 15.375  60.50390625 19.265625  Z " fill-rule="nonzero" fill="#000000" stroke="none" transform="matrix(1 0 0 1 937 19 )" />
  </g>
</svg>