<?xml version="1.0" encoding="utf-8"?>
<svg version="1.1" xmlns:xlink="http://www.w3.org/1999/xlink" width="19px" height="16px" xmlns="http://www.w3.org/2000/svg">
  <g transform="matrix(1 0 0 1 -261 -366 )">
    <path d="M 17.6428571428571 1.33159947984395  L 17.6428571428571 5.32639791937581  C 18.0174851190476 5.32639791937581  18.3373325892857 5.45643693107932  18.6023995535714 5.71651495448635  C 18.8674665178571 5.97659297789337  19 6.29042045947118  19 6.65799739921977  C 19 7.02557433896836  18.8674665178571 7.33940182054616  18.6023995535714 7.59947984395319  C 18.3373325892857 7.85955786736021  18.0174851190476 7.98959687906372  17.6428571428571 7.98959687906372  L 17.6428571428571 11.9843953185956  C 17.6428571428571 12.3450368443866  17.5085565476191 12.6571304724751  17.2399553571429 12.9206762028609  C 16.9713541666667 13.1842219332466  16.6532738095238 13.3159947984395  16.2857142857143 13.3159947984395  C 13.3381696428571 10.9094061551799  10.4683779761905 9.59167750325097  7.67633928571429 9.3628088426528  C 7.26636904761905 9.49458170784569  6.94475446428571 9.72345036844387  6.71149553571429 10.0494148244473  C 6.47823660714286 10.3753792804508  6.3686755952381 10.7238838318162  6.3828125 11.0949284785436  C 6.39694940476191 11.4659731252709  6.53831845238095 11.7867360208062  6.80691964285714 12.0572171651495  C 6.6655505952381 12.2860858257477  6.58426339285714 12.5132206328565  6.56305803571429 12.7386215864759  C 6.54185267857143 12.9640225400954  6.56305803571429 13.1651495448635  6.62667410714286 13.3420026007802  C 6.69029017857143 13.518855656697  6.80868675595238 13.7095795405288  6.98186383928571 13.9141742522757  C 7.15504092261905 14.1187689640225  7.32468377976191 14.2921543129606  7.49079241071429 14.4343302990897  C 7.65690104166667 14.5765062852189  7.87425595238095 14.7516254876463  8.14285714285714 14.9596879063719  C 7.93787202380952 15.3619419159081  7.54380580357143 15.6497615951452  6.96065848214286 15.8231469440832  C 6.37751116071429 15.9965322930212  5.78199404761905 16.036410923277  5.17410714285714 15.9427828348505  C 4.56622023809524 15.8491547464239  4.09970238095238 15.6566970091027  3.77455357142857 15.3654096228869  C 3.72507440476191 15.2058951018639  3.62081473214286 14.9024707412224  3.46177455357143 14.4551365409623  C 3.302734375 14.0078023407022  3.18963913690476 13.6801040312094  3.12248883928571 13.4720416124837  C 3.05533854166667 13.2639791937581  2.97405133928571 12.9553532726485  2.87862723214286 12.5461638491547  C 2.783203125 12.136974425661  2.73018973214286 11.7867360208062  2.71958705357143 11.4954486345904  C 2.708984375 11.2041612483745  2.72135416666667 10.8625921109666  2.75669642857143 10.4707412223667  C 2.79203869047619 10.0788903337668  2.86979166666667 9.69570871261378  2.98995535714286 9.32119635890767  L 1.69642857142857 9.32119635890767  C 1.22991071428571 9.32119635890767  0.830543154761905 9.15821413090594  0.498325892857143 8.83224967490247  C 0.166108630952381 8.506285218899  0 8.11443433029909  0 7.65669700910273  L 0 5.6592977893368  C 0 5.20156046814044  0.166108630952381 4.80970957954053  0.498325892857143 4.48374512353706  C 0.830543154761905 4.15778066753359  1.22991071428571 3.99479843953186  1.69642857142857 3.99479843953186  L 6.78571428571429 3.99479843953186  C 9.86049107142857 3.99479843953186  13.0271577380952 2.66319895968791  16.2857142857143 0  C 16.6532738095238 0  16.9713541666667 0.13177286519289  17.2399553571429 0.395318595578674  C 17.5085565476191 0.658864325964455  17.6428571428571 0.970957954052881  17.6428571428571 1.33159947984395  Z M 8.14285714285714 8.06241872561769  C 10.8076636904762 8.35370611183355  13.5219494047619 9.53619419159081  16.2857142857143 11.6098829648895  L 16.2857142857143 1.6853055916775  C 13.500744047619 3.77980060684872  10.7864583333333 4.9692241005635  8.14285714285714 5.25357607282185  L 8.14285714285714 8.06241872561769  Z " fill-rule="nonzero" fill="#333333" stroke="none" fill-opacity="0.901960784313726" transform="matrix(1 0 0 1 261 366 )" />
  </g>
</svg>