<?xml version="1.0" encoding="utf-8"?>
<svg version="1.1" xmlns:xlink="http://www.w3.org/1999/xlink" width="52px" height="49px" xmlns="http://www.w3.org/2000/svg">
  <g transform="matrix(1 0 0 1 -698 -227 )">
    <path d="M 24 3.76923076923077  L 24 26.2079326923077  L 39.5416666666667 42.2860576923077  C 37.4151234567901 44.40625  34.9324845679012 46.0552884615385  32.09375 47.2331730769231  C 29.2550154320988 48.4110576923077  26.2608024691358 49  23.1111111111111 49  C 18.9182098765432 49  15.0513117283951 47.9889823717949  11.5104166666667 45.9669471153846  C 7.96952160493827 43.9449118589744  5.1658950617284 41.201422275641  3.09953703703704 37.7364783653846  C 1.03317901234568 34.2715344551282  0 30.4875801282051  0 26.3846153846154  C 0 22.2816506410256  1.03317901234568 18.4976963141026  3.09953703703704 15.0327524038462  C 5.1658950617284 11.5678084935897  7.96952160493827 8.82431891025641  11.5104166666667 6.80228365384616  C 15.0513117283951 4.78024839743589  18.9182098765432 3.76923076923077  24 3.76923076923077  Z M 45.1388888888889 42.4627403846154  L 28.7384259259259 26  L 52 26  C 52 29.4667467948718  51.3981481481482 32.396734775641  50.1944444444444 35.1745793269231  C 48.9907407407407 37.9524238782051  47.3055555555556 40.3818108974359  45.1388888888889 42.4627403846154  Z M 46.974537037037 11.2635216346154  C 49.0408950617284 14.7284655448718  50.0740740740741 18.5124198717949  50.0740740740741 23  L 27 23  L 27 0  C 31.1558641975309 0  35.022762345679 1.01101762820513  38.5636574074074 3.03305288461538  C 42.1045524691358 5.05508814102564  44.9081790123457 7.79857772435897  46.974537037037 11.2635216346154  Z " fill-rule="nonzero" fill="#ffffff" stroke="none" transform="matrix(1 0 0 1 698 227 )" />
  </g>
</svg>