<?xml version="1.0" encoding="utf-8"?>
<svg version="1.1" xmlns:xlink="http://www.w3.org/1999/xlink" width="22px" height="22px" xmlns="http://www.w3.org/2000/svg">
  <g transform="matrix(1 0 0 1 -820 -374 )">
    <path d="M 15.3705357142857 19.3543526785714  C 16.7209821428571 18.6382068452381  17.8299851190476 17.6662946428571  18.6975446428571 16.4386160714286  C 18.5174851190476 15.1700148809524  18.159412202381 14.1162574404762  17.6233258928571 13.27734375  C 17.0872395833333 12.4384300595238  16.3322172619048 11.9534970238095  15.3582589285714 11.8225446428571  C 14.8098958333333 12.4281994047619  14.1571800595238 12.9008556547619  13.4001116071429 13.2405133928571  C 12.6430431547619 13.5801711309524  11.843005952381 13.75  11 13.75  C 10.156994047619 13.75  9.3569568452381 13.5801711309524  8.59988839285714 13.2405133928571  C 7.84281994047619 12.9008556547619  7.19010416666667 12.4281994047619  6.64174107142857 11.8225446428571  C 5.66778273809524 11.9534970238095  4.91276041666667 12.4384300595238  4.37667410714286 13.27734375  C 3.84058779761905 14.1162574404762  3.48251488095238 15.1700148809524  3.30245535714286 16.4386160714286  C 4.17001488095238 17.6662946428571  5.27901785714286 18.6382068452381  6.62946428571429 19.3543526785714  C 7.97991071428571 20.0704985119048  9.43675595238095 20.4285714285714  11 20.4285714285714  C 12.563244047619 20.4285714285714  14.0200892857143 20.0704985119048  15.3705357142857 19.3543526785714  Z M 14.3331473214286 11.1902901785714  C 15.25390625 10.26953125  15.7142857142857 9.15848214285714  15.7142857142857 7.85714285714286  C 15.7142857142857 6.55580357142857  15.25390625 5.44475446428571  14.3331473214286 4.52399553571429  C 13.4123883928571 3.60323660714286  12.3013392857143 3.14285714285714  11 3.14285714285714  C 9.69866071428572 3.14285714285714  8.58761160714286 3.60323660714286  7.66685267857143 4.52399553571429  C 6.74609375 5.44475446428571  6.28571428571429 6.55580357142857  6.28571428571429 7.85714285714286  C 6.28571428571429 9.15848214285714  6.74609375 10.26953125  7.66685267857143 11.1902901785714  C 8.58761160714286 12.1110491071429  9.69866071428572 12.5714285714286  11 12.5714285714286  C 12.3013392857143 12.5714285714286  13.4123883928571 12.1110491071429  14.3331473214286 11.1902901785714  Z M 21.1283482142857 6.72767857142857  C 21.7094494047619 8.08630952380952  22 9.51041666666667  22 11  C 22 12.4895833333333  21.7094494047619 13.9116443452381  21.1283482142857 15.2661830357143  C 20.5472470238095 16.6207217261905  19.7676711309524 17.7911086309524  18.7896205357143 18.77734375  C 17.8115699404762 19.7635788690476  16.6432291666667 20.5472470238095  15.2845982142857 21.1283482142857  C 13.9259672619048 21.7094494047619  12.4977678571429 22  11 22  C 9.51041666666667 22  8.08630952380952 21.7094494047619  6.72767857142857 21.1283482142857  C 5.36904761904762 20.5472470238095  4.19866071428571 19.765625  3.21651785714286 18.7834821428571  C 2.234375 17.8013392857143  1.45275297619048 16.6309523809524  0.871651785714286 15.2723214285714  C 0.290550595238095 13.9136904761905  0 12.4895833333333  0 11  C 0 9.51041666666667  0.290550595238095 8.08630952380952  0.871651785714286 6.72767857142857  C 1.45275297619048 5.36904761904762  2.234375 4.19866071428571  3.21651785714286 3.21651785714286  C 4.19866071428571 2.234375  5.36904761904762 1.45275297619048  6.72767857142857 0.871651785714285  C 8.08630952380952 0.290550595238095  9.51041666666667 0  11 0  C 12.4895833333333 0  13.9136904761905 0.290550595238095  15.2723214285714 0.871651785714285  C 16.6309523809524 1.45275297619048  17.8013392857143 2.234375  18.7834821428571 3.21651785714286  C 19.765625 4.19866071428571  20.5472470238095 5.36904761904762  21.1283482142857 6.72767857142857  Z " fill-rule="nonzero" fill="#ffffff" stroke="none" transform="matrix(1 0 0 1 820 374 )" />
  </g>
</svg>