<?xml version="1.0" encoding="utf-8"?>
<svg version="1.1" xmlns:xlink="http://www.w3.org/1999/xlink" width="22px" height="24px" xmlns="http://www.w3.org/2000/svg">
  <g transform="matrix(1 0 0 1 -826 -621 )">
    <path d="M 1.69230769230769 18.4285714285714  L 1.69230769230769 22.2857142857143  L 5.5 22.2857142857143  L 5.5 18.4285714285714  L 1.69230769230769 18.4285714285714  Z M 6.34615384615385 18.4285714285714  L 6.34615384615385 22.2857142857143  L 10.5769230769231 22.2857142857143  L 10.5769230769231 18.4285714285714  L 6.34615384615385 18.4285714285714  Z M 1.69230769230769 13.2857142857143  L 1.69230769230769 17.5714285714286  L 5.5 17.5714285714286  L 5.5 13.2857142857143  L 1.69230769230769 13.2857142857143  Z M 6.34615384615385 13.2857142857143  L 6.34615384615385 17.5714285714286  L 10.5769230769231 17.5714285714286  L 10.5769230769231 13.2857142857143  L 6.34615384615385 13.2857142857143  Z M 1.69230769230769 8.57142857142857  L 1.69230769230769 12.4285714285714  L 5.5 12.4285714285714  L 5.5 8.57142857142857  L 1.69230769230769 8.57142857142857  Z M 11.4230769230769 18.4285714285714  L 11.4230769230769 22.2857142857143  L 15.6538461538462 22.2857142857143  L 15.6538461538462 18.4285714285714  L 11.4230769230769 18.4285714285714  Z M 6.34615384615385 8.57142857142857  L 6.34615384615385 12.4285714285714  L 10.5769230769231 12.4285714285714  L 10.5769230769231 8.57142857142857  L 6.34615384615385 8.57142857142857  Z M 16.5 18.4285714285714  L 16.5 22.2857142857143  L 20.3076923076923 22.2857142857143  L 20.3076923076923 18.4285714285714  L 16.5 18.4285714285714  Z M 11.4230769230769 13.2857142857143  L 11.4230769230769 17.5714285714286  L 15.6538461538462 17.5714285714286  L 15.6538461538462 13.2857142857143  L 11.4230769230769 13.2857142857143  Z M 6.64362980769231 6.30133928571429  C 6.72736378205128 6.21651785714286  6.76923076923077 6.11607142857143  6.76923076923077 6  L 6.76923076923077 2.14285714285714  C 6.76923076923077 2.02678571428571  6.72736378205128 1.92633928571428  6.64362980769231 1.84151785714286  C 6.55989583333333 1.75669642857143  6.46073717948718 1.71428571428571  6.34615384615385 1.71428571428571  L 5.5 1.71428571428571  C 5.38541666666667 1.71428571428571  5.28625801282051 1.75669642857143  5.20252403846154 1.84151785714286  C 5.11879006410256 1.92633928571428  5.07692307692308 2.02678571428571  5.07692307692308 2.14285714285714  L 5.07692307692308 6  C 5.07692307692308 6.11607142857143  5.11879006410256 6.21651785714286  5.20252403846154 6.30133928571429  C 5.28625801282051 6.38616071428571  5.38541666666667 6.42857142857143  5.5 6.42857142857143  L 6.34615384615385 6.42857142857143  C 6.46073717948718 6.42857142857143  6.55989583333333 6.38616071428571  6.64362980769231 6.30133928571429  Z M 16.5 13.2857142857143  L 16.5 17.5714285714286  L 20.3076923076923 17.5714285714286  L 20.3076923076923 13.2857142857143  L 16.5 13.2857142857143  Z M 11.4230769230769 8.57142857142857  L 11.4230769230769 12.4285714285714  L 15.6538461538462 12.4285714285714  L 15.6538461538462 8.57142857142857  L 11.4230769230769 8.57142857142857  Z M 16.5 8.57142857142857  L 16.5 12.4285714285714  L 20.3076923076923 12.4285714285714  L 20.3076923076923 8.57142857142857  L 16.5 8.57142857142857  Z M 16.7974759615385 6.30133928571429  C 16.8812099358974 6.21651785714286  16.9230769230769 6.11607142857143  16.9230769230769 6  L 16.9230769230769 2.14285714285714  C 16.9230769230769 2.02678571428571  16.8812099358974 1.92633928571428  16.7974759615385 1.84151785714286  C 16.7137419871795 1.75669642857143  16.6145833333333 1.71428571428571  16.5 1.71428571428571  L 15.6538461538462 1.71428571428571  C 15.5392628205128 1.71428571428571  15.4401041666667 1.75669642857143  15.3563701923077 1.84151785714286  C 15.2726362179487 1.92633928571428  15.2307692307692 2.02678571428571  15.2307692307692 2.14285714285714  L 15.2307692307692 6  C 15.2307692307692 6.11607142857143  15.2726362179487 6.21651785714286  15.3563701923077 6.30133928571429  C 15.4401041666667 6.38616071428571  15.5392628205128 6.42857142857143  15.6538461538462 6.42857142857143  L 16.5 6.42857142857143  C 16.6145833333333 6.42857142857143  16.7137419871795 6.38616071428571  16.7974759615385 6.30133928571429  Z M 21.4975961538462 3.9375  C 21.8325320512821 4.27678571428571  22 4.67857142857143  22 5.14285714285714  L 22 22.2857142857143  C 22 22.75  21.8325320512821 23.1517857142857  21.4975961538462 23.4910714285714  C 21.1626602564103 23.8303571428571  20.7660256410256 24  20.3076923076923 24  L 1.69230769230769 24  C 1.23397435897436 24  0.837339743589744 23.8303571428571  0.502403846153846 23.4910714285714  C 0.167467948717949 23.1517857142857  0 22.75  0 22.2857142857143  L 0 5.14285714285714  C 0 4.67857142857143  0.167467948717949 4.27678571428571  0.502403846153846 3.9375  C 0.837339743589744 3.59821428571428  1.23397435897436 3.42857142857143  1.69230769230769 3.42857142857143  L 3.38461538461539 3.42857142857143  L 3.38461538461539 2.14285714285714  C 3.38461538461539 1.55357142857143  3.59174679487179 1.04910714285714  4.00600961538462 0.629464285714286  C 4.42027243589744 0.209821428571429  4.91826923076923 0  5.5 0  L 6.34615384615385 0  C 6.92788461538462 0  7.42588141025641 0.209821428571429  7.84014423076923 0.629464285714286  C 8.25440705128205 1.04910714285714  8.46153846153846 1.55357142857143  8.46153846153846 2.14285714285714  L 8.46153846153846 3.42857142857143  L 13.5384615384615 3.42857142857143  L 13.5384615384615 2.14285714285714  C 13.5384615384615 1.55357142857143  13.7455929487179 1.04910714285714  14.1598557692308 0.629464285714286  C 14.5741185897436 0.209821428571429  15.0721153846154 0  15.6538461538462 0  L 16.5 0  C 17.0817307692308 0  17.5797275641026 0.209821428571429  17.9939903846154 0.629464285714286  C 18.4082532051282 1.04910714285714  18.6153846153846 1.55357142857143  18.6153846153846 2.14285714285714  L 18.6153846153846 3.42857142857143  L 20.3076923076923 3.42857142857143  C 20.7660256410256 3.42857142857143  21.1626602564103 3.59821428571428  21.4975961538462 3.9375  Z " fill-rule="nonzero" fill="#ffffff" stroke="none" transform="matrix(1 0 0 1 826 621 )" />
  </g>
</svg>