<?xml version="1.0" encoding="utf-8"?>
<svg version="1.1" xmlns:xlink="http://www.w3.org/1999/xlink" width="28px" height="24px" xmlns="http://www.w3.org/2000/svg">
  <g transform="matrix(1 0 0 1 -255 -297 )">
    <path d="M 20.8359375 11.640625  C 20.9453125 11.734375  21 11.8541666666667  21 12  C 21 12.1458333333333  20.9453125 12.265625  20.8359375 12.359375  L 15.0026041666667 17.359375  C 14.8932291666667 17.453125  14.7534722222222 17.5  14.5833333333333 17.5  C 14.4253472222222 17.5  14.2886284722222 17.4505208333333  14.1731770833333 17.3515625  C 14.0577256944444 17.2526041666667  14 17.1354166666667  14 17  L 14 14  L 7.58333333333333 14  C 7.42534722222222 14  7.28862847222222 13.9505208333333  7.17317708333333 13.8515625  C 7.05772569444444 13.7526041666667  7 13.6354166666667  7 13.5  L 7 10.5  C 7 10.3645833333333  7.05772569444444 10.2473958333333  7.17317708333333 10.1484375  C 7.28862847222222 10.0494791666667  7.42534722222222 10  7.58333333333333 10  L 14 10  L 14 7  C 14 6.85416666666666  14.0546875 6.734375  14.1640625 6.640625  C 14.2734375 6.546875  14.4131944444444 6.5  14.5833333333333 6.5  C 14.7291666666667 6.5  14.875 6.55208333333333  15.0208333333333 6.65625  L 20.8359375 11.640625  Z M 22.5859375 16.265625  C 23.4730902777778 14.9635416666667  23.9166666666667 13.5416666666667  23.9166666666667 12  C 23.9166666666667 10.4583333333333  23.4730902777778 9.03645833333333  22.5859375 7.734375  C 21.6987847222222 6.43229166666666  20.4956597222222 5.40104166666666  18.9765625 4.640625  C 17.4574652777778 3.88020833333333  15.7986111111111 3.5  14 3.5  C 12.2013888888889 3.5  10.5425347222222 3.88020833333333  9.0234375 4.640625  C 7.50434027777778 5.40104166666666  6.30121527777778 6.43229166666666  5.4140625 7.734375  C 4.52690972222222 9.03645833333333  4.08333333333333 10.4583333333333  4.08333333333333 12  C 4.08333333333333 13.5416666666667  4.52690972222222 14.9635416666667  5.4140625 16.265625  C 6.30121527777778 17.5677083333333  7.50434027777778 18.5989583333333  9.0234375 19.359375  C 10.5425347222222 20.1197916666667  12.2013888888889 20.5  14 20.5  C 15.7986111111111 20.5  17.4574652777778 20.1197916666667  18.9765625 19.359375  C 20.4956597222222 18.5989583333333  21.6987847222222 17.5677083333333  22.5859375 16.265625  Z M 26.1223958333333 5.9765625  C 27.3741319444444 7.81510416666666  28 9.82291666666666  28 12  C 28 14.1770833333333  27.3741319444444 16.1848958333333  26.1223958333333 18.0234375  C 24.8706597222222 19.8619791666667  23.1723090277778 21.3177083333333  21.02734375 22.390625  C 18.8823784722222 23.4635416666667  16.5399305555556 24  14 24  C 11.4600694444444 24  9.11762152777778 23.4635416666667  6.97265625 22.390625  C 4.82769097222222 21.3177083333333  3.12934027777778 19.8619791666667  1.87760416666667 18.0234375  C 0.625868055555555 16.1848958333333  0 14.1770833333333  0 12  C 0 9.82291666666666  0.625868055555555 7.81510416666666  1.87760416666667 5.9765625  C 3.12934027777778 4.13802083333333  4.82769097222222 2.68229166666666  6.97265625 1.609375  C 9.11762152777778 0.536458333333331  11.4600694444444 0  14 0  C 16.5399305555556 0  18.8823784722222 0.536458333333331  21.02734375 1.609375  C 23.1723090277778 2.68229166666666  24.8706597222222 4.13802083333333  26.1223958333333 5.9765625  Z " fill-rule="nonzero" fill="#000000" stroke="none" transform="matrix(1 0 0 1 255 297 )" />
  </g>
</svg>