<?xml version="1.0" encoding="utf-8"?>
<svg version="1.1" xmlns:xlink="http://www.w3.org/1999/xlink" width="32px" height="50px" xmlns="http://www.w3.org/2000/svg">
  <g transform="matrix(1 0 0 1 -575 -200 )">
    <path d="M 3.02253032928943 0.53013392857143  L 31.4176776429809 29.1015625  C 31.9907567879838 29.6595982142857  32.1201617562103 30.3013392857143  31.8058925476603 31.0267857142857  C 31.4916233391103 31.7708333333333  30.946273830156 32.1428571428571  30.1698440207972 32  L 19.57712305026 32  L 25.1507798960139 45.4241071428571  C 25.3356441363374 45.8891369047619  25.3356441363374 46.3448660714286  25.1507798960139 46.7912946428571  C 24.9659156556904 47.2377232142857  24.6516464471404 47.5632440476191  24.207972270364 47.7678571428571  L 19.2998266897747 49.8604910714286  C 18.8376660889659 50.0465029761905  18.3847487001733 50.0465029761905  17.9410745233969 49.8604910714286  C 17.4974003466205 49.6744791666667  17.1738879260543 49.3582589285714  16.9705372616984 48.9118303571429  L 11.6741767764298 36.3002232142857  L 3.02253032928943 45.0055803571429  C 2.67128827267475 45.3590029761905  2.25534373194685 45.5357142857143  1.77469670710572 45.5357142857143  C 1.5528596187175 45.5357142857143  1.33102253032929 45.4892113095238  1.10918544194107 45.3962053571429  C 0.369728480647025 45.0799851190476  0 44.53125  0 43.75  L 0 1.78571428571428  C 0 1.00446428571428  0.369728480647025 0.455729166666663  1.10918544194107 0.13950892857143  C 1.33102253032929 0.0465029761904767  1.5528596187175 0  1.77469670710572 0  C 2.2738301559792 0  2.68977469670711 0.176711309523814  3.02253032928943 0.53013392857143  Z " fill-rule="nonzero" fill="#000000" stroke="none" transform="matrix(1 0 0 1 575 200 )" />
  </g>
</svg>