<?xml version="1.0" encoding="utf-8"?>
<svg version="1.1" xmlns:xlink="http://www.w3.org/1999/xlink" width="38px" height="47px" xmlns="http://www.w3.org/2000/svg">
  <g transform="matrix(1 0 0 1 -71 -200 )">
    <path d="M 10.5555555555556 14.9545454545455  L 10.5555555555556 22  L 27.4444444444444 22  L 27.4444444444444 14.9545454545455  C 27.4444444444444 12.5956439393939  26.6197916666667 10.5816761363636  24.9704861111111 8.91264204545454  C 23.3211805555556 7.24360795454546  21.3310185185185 6.40909090909091  19 6.40909090909091  C 16.6689814814815 6.40909090909091  14.6788194444444 7.24360795454546  13.0295138888889 8.91264204545454  C 11.3802083333333 10.5816761363636  10.5555555555556 12.5956439393939  10.5555555555556 14.9545454545455  Z M 37.0763888888889 22.2982954545455  C 37.6921296296296 22.9214015151515  38 23.6780303030303  38 24.5681818181818  L 38 43.7954545454545  C 38 44.6856060606061  37.6921296296296 45.4422348484848  37.0763888888889 46.0653409090909  C 36.4606481481482 46.688446969697  35.712962962963 47  34.8333333333333 47  L 3.16666666666667 47  C 2.28703703703704 47  1.53935185185185 46.688446969697  0.923611111111111 46.0653409090909  C 0.30787037037037 45.4422348484848  0 44.6856060606061  0 43.7954545454545  L 0 24.5681818181818  C 0 23.6780303030303  0.30787037037037 22.9214015151515  0.923611111111111 22.2982954545455  C 1.53935185185185 21.6751893939394  2.28703703703704 21.3636363636364  3.16666666666667 21.3636363636364  L 4.22222222222222 21.3636363636364  L 4.22222222222222 14.9545454545455  C 4.22222222222222 10.8598484848485  5.67361111111111 7.34375  8.57638888888889 4.40625  C 11.4791666666667 1.46875  14.9537037037037 0  19 0  C 23.0462962962963 0  26.5208333333333 1.46875  29.4236111111111 4.40625  C 32.3263888888889 7.34375  33.7777777777778 10.8598484848485  33.7777777777778 14.9545454545455  L 33.7777777777778 21.3636363636364  L 34.8333333333333 21.3636363636364  C 35.712962962963 21.3636363636364  36.4606481481482 21.6751893939394  37.0763888888889 22.2982954545455  Z " fill-rule="nonzero" fill="#000000" stroke="none" transform="matrix(1 0 0 1 71 200 )" />
  </g>
</svg>